<?xml version="1.0" encoding="UTF-8" standalone="no"?>
<!DOCTYPE svg PUBLIC "-//W3C//DTD SVG 1.0//EN" "http://www.w3.org/TR/2001/REC-SVG-20010904/DTD/svg10.dtd">
<!-- Microsoft Visio 11.0、SVG Export v1.0 により生成 Japan Post Service Logo.svg ページ - 1 -->
<svg xmlns="http://www.w3.org/2000/svg" xmlns:v="http://schemas.microsoft.com/visio/2003/SVGExtensions/" width="5.83061in"
		height="1.19218in" viewBox="0 0 419.804 85.8369" xml:space="preserve" color-interpolation-filters="sRGB" class="st4">
	<v:documentProperties v:langID="1033" v:metric="true" v:viewMarkup="false"/>

	<style type="text/css">
	<![CDATA[
		.st1 {fill:#c40f39;stroke:none;stroke-linecap:butt;stroke-width:0.75}
		.st2 {fill:#c40f39}
		.st3 {stroke:none;stroke-linecap:butt;stroke-width:0.75}
		.st4 {fill:none;fill-rule:evenodd;font-size:12;overflow:visible;stroke-linecap:square;stroke-miterlimit:3}
	]]>
	</style>

	<g v:mID="0" v:index="1" v:groupContext="foregroundPage">
		<title>ページ - 1</title>
		<v:pageProperties v:drawingScale="1" v:pageScale="1" v:drawingUnits="19" v:shadowOffsetX="9" v:shadowOffsetY="-9"/>
		<g id="group17-1" transform="translate(0.75,-0.75)" v:mID="17" v:groupContext="group">
			<title>シート.17</title>
			<g id="shape18-2" v:mID="18" v:groupContext="shape" transform="translate(5.04199,-24.4922)">
				<title>path3609</title>
				<path d="M102.36 43.17 C101.61 48.47 97.43 50.88 90.04 50.87 L80.21 50.87 L83.5 35.12 L93.53 35.12 C101.01 35.12
							 102.95 38.87 102.36 43.17 L102.36 43.17 Z M97.73 25.99 L71.14 25.99 L63.22 64.19 C60.48 77.4 52.08 80.86
							 41.91 80.86 C32.67 80.86 23.89 76.01 26.16 64.19 C26.66 61.63 26.85 60.66 27.28 58.48 L39.25 58.48 C39.01
							 59.62 38.57 61.53 38 64.19 C37.15 68.24 38.92 70.8 43.44 70.8 C47.95 70.8 50.27 68.38 51.11 64.19 L59.05
							 25.99 L31.14 25.99 C16.17 25.99 11.66 29.73 8.96 42.82 L0 85.84 L54.01 85.84 C67.32 85.84 74.55 78.2
							 76.44 69 C78.28 60.14 78.29 60.14 78.29 60.14 L91.46 60.14 C104.8 60.14 112.83 54.54 114.72 43.17 C116.48
							 32.58 108.82 25.99 97.73 25.99 Z" class="st1"/>
			</g>
			<g id="shape19-4" v:mID="19" v:groupContext="shape" transform="translate(-6.99441E-015,-0.260738)">
				<title>path3613</title>
				<path d="M5.68 77.74 L6.76 77.74 C8.34 77.74 9.79 77.19 9.77 75.4 C9.76 73.95 8.76 73.66 7.69 73.66 L6.51 73.66 L5.68
							 77.74 Z M3.13 70.82 L7.13 70.82 C10.42 70.82 13.74 71.16 13.77 74.94 C13.8 78.69 10.75 80.59 7.14 80.59
							 L5.09 80.59 L4.01 85.84 L0 85.84 L3.13 70.82 Z" class="st1"/>
			</g>
			<g id="shape20-6" v:mID="20" v:groupContext="shape" transform="translate(31.2568,1.42109E-014)">
				<title>path3617</title>
				<path d="M8.52 73.26 C5.41 73.26 4.15 76.86 4.16 79.4 C4.18 81.29 4.9 82.86 6.99 82.86 C10.09 82.86 11.35 79.27 11.34
							 76.75 C11.32 74.85 10.6 73.26 8.52 73.26 Z M6.76 85.84 C1.87 85.84 0.05 82.79 0.04 79.71 C0 74.02 2.96
							 70.3 8.75 70.3 C13.63 70.3 15.43 73.33 15.46 76.42 C15.5 82.11 12.53 85.84 6.76 85.84 Z" class="st1"/>
			</g>
			<g id="shape21-8" v:mID="21" v:groupContext="shape" transform="translate(64.7051,-8.52651E-014)">
				<title>path3621</title>
				<path d="M12.27 73.95 C11.5 73.6 10.44 73.26 8.95 73.26 C7.37 73.26 6.08 73.49 6.08 74.7 C6.1 76.83 11.93 76.04 11.95
							 80.61 C11.97 84.75 8.14 85.84 4.65 85.84 C3.09 85.84 1.31 85.46 0 85.05 L0.92 82.01 C1.72 82.51 3.31
							 82.86 4.63 82.86 C5.88 82.86 7.84 82.62 7.83 81.08 C7.82 78.66 1.97 79.56 1.95 75.32 C1.93 71.46 5.32
							 70.3 8.61 70.3 C10.47 70.3 12.2 70.49 13.22 70.97 L12.27 73.95 Z" class="st1"/>
			</g>
			<g id="shape22-10" v:mID="22" v:groupContext="shape" transform="translate(95.8506,-0.26367)">
				<title>path3625</title>
				<path d="M4.98 73.78 L0 73.78 L0.62 70.82 L14.11 70.82 L13.49 73.78 L9.04 73.78 L6.57 85.84 L2.5 85.84 L4.98 73.78
							 Z" class="st1"/>
			</g>
			<g id="shape23-12" v:mID="23" v:groupContext="shape" transform="translate(216.258,-10.3506)">
				<title>path3629</title>
				<path d="M42.31 39.68 L61.46 39.68 L61.46 33.79 L35.41 33.79 L35.41 22.19 L26.97 22.19 L26.97 33.79 L0.96 33.79 L0.96
							 39.68 L18.23 39.68 C14.93 52.33 8.23 62.69 0 69.03 L0 75.87 C12.84 69 21.99 57.81 26.73 39.68 L26.97
							 39.68 L26.97 68.07 L13.97 68.07 L13.97 73.96 L26.97 73.96 L26.97 85.84 L35.41 85.84 L35.41 73.96 L48.41
							 73.96 L48.41 68.07 L35.41 68.07 L35.41 39.68 L35.94 39.68 C40.66 57.88 49.8 69.92 62.37 76.05 L62.37
							 67.05 C54.43 62.16 46.63 53.61 42.31 39.68 Z" class="st1"/>
			</g>
			<g id="shape24-14" v:mID="24" v:groupContext="shape" transform="translate(155.921,-10.9834)">
				<title>path3633</title>
				<path d="M44.14 52.57 L8.43 52.57 L8.43 31.9 L44.14 31.9 L44.14 52.57 Z M44.14 79.96 L8.43 79.96 L8.43 58.46 L44.14
							 58.46 L44.14 79.96 Z M52.58 25.99 L0 25.99 L0 85.84 L52.58 85.84 L52.58 25.99 Z" class="st1"/>
			</g>
			<g id="shape25-16" v:mID="25" v:groupContext="shape" transform="translate(353.71,-10.3477)">
				<title>path3637</title>
				<path d="M18.51 23.44 L10.62 23.44 C9.08 38.15 5.03 47.34 0 51.88 L0 58.43 C2.77 57.04 5.19 55.29 7.32 53.15 L7.32
							 85.84 L14.79 85.84 L14.79 40.6 C16.48 35.88 17.69 30.22 18.51 23.44 Z" class="st1"/>
			</g>
			<g id="shape26-18" v:mID="26" v:groupContext="shape" transform="translate(371.93,-10.9541)">
				<title>path3641</title>
				<path d="M9.76 54.36 L19.32 54.36 L19.32 61.59 L9.76 61.59 L9.76 54.36 Z M9.76 42.03 L19.32 42.03 L19.32 49.27 L9.76
							 49.27 L9.76 42.03 Z M26.92 42.03 L36.58 42.03 L36.58 49.27 L26.92 49.27 L26.92 42.03 Z M36.58 61.59
							 L26.92 61.59 L26.92 54.36 L36.58 54.36 L36.58 61.59 Z M46.37 78.47 C36.78 78.4 29.05 77.46 23 75.81
							 C24.84 73.45 26.09 70.51 26.62 66.86 L43.8 66.86 L43.8 36.76 L26.92 36.76 L26.92 31.15 L44.94 31.15
							 L44.94 25.78 L2.5 25.78 L2.5 31.15 L19.32 31.15 L19.32 36.76 L2.54 36.76 L2.54 66.86 L18.96 66.86 C18.45
							 69.28 17.38 71.4 15.77 73.22 C13.04 71.89 10.87 70.36 9.24 68.65 L3.53 68.65 C5.48 71.81 8.04 74.56
							 11.24 76.83 C8.29 78.52 4.52 79.75 0 80.49 L0 85.84 C7.1 84.65 13.1 83.09 17.61 80.41 C25.03 83.72 34.65
							 85.41 46.37 85.41 L46.37 78.47 Z" class="st1"/>
			</g>
			<g id="shape27-20" v:mID="27" v:groupContext="shape" transform="translate(285.759,-12.5069)">
				<title>path3645</title>
				<path d="M21.82 44.35 L26.19 44.35 L26.19 52.06 L21.82 52.06 L21.82 44.35 Z M26.19 65.86 L21.82 65.86 L21.82 57.52
							 L26.19 57.52 L26.19 65.86 Z M14.6 65.86 L10.12 65.86 L10.12 57.52 L14.6 57.52 L14.6 65.86 Z M10.12 44.35
							 L14.6 44.35 L14.6 52.06 L10.12 52.06 L10.12 44.35 Z M36.6 26.53 L25.73 26.53 C22.51 29.01 17.58 29.71
							 2.1 29.71 L2.1 34.7 C6.98 34.7 11.09 34.65 14.6 34.52 L14.6 39.18 L1.05 39.18 L1.05 44.35 L3.83 44.35
							 L3.83 52.06 L0 52.06 L0 57.52 L3.83 57.52 L3.83 65.86 L1.05 65.86 L1.05 71.03 L14.6 71.03 L14.6 77.87
							 C10.12 78.25 5.56 78.52 1.01 78.67 L1.01 85.84 C14.26 84.75 25.47 83.2 35.48 81.18 L35.48 75.61 C31.18
							 76.19 26.58 76.73 21.82 77.22 L21.82 71.03 L35.26 71.03 L35.26 65.86 L32.45 65.86 L32.45 57.52 L36.17
							 57.52 L36.17 52.06 L32.45 52.06 L32.45 44.35 L35.26 44.35 L35.26 39.18 L21.82 39.18 L21.82 34.01 C30.27
							 33.09 33.57 30.98 36.6 26.53 L36.6 26.53 Z" class="st2"/>
				<path d="M21.82 44.35 L26.19 44.35 L26.19 52.06 L21.82 52.06 L21.82 44.35M26.19 65.86 L21.82 65.86 L21.82 57.52 L26.19
							 57.52 L26.19 65.86M14.6 65.86 L10.12 65.86 L10.12 57.52 L14.6 57.52 L14.6 65.86M10.12 44.35 L14.6 44.35
							 L14.6 52.06 L10.12 52.06 L10.12 44.35M36.6 26.53 L25.73 26.53 C22.51 29.01 17.58 29.71 2.1 29.71 L2.1
							 34.7 C6.98 34.7 11.09 34.65 14.6 34.52 L14.6 39.18 L1.05 39.18 L1.05 44.35 L3.83 44.35 L3.83 52.06 L0
							 52.06 L0 57.52 L3.83 57.52 L3.83 65.86 L1.05 65.86 L1.05 71.03 L14.6 71.03 L14.6 77.87 C10.12 78.25
							 5.56 78.52 1.01 78.67 L1.01 85.84 C14.26 84.75 25.47 83.2 35.48 81.18 L35.48 75.61 C31.18 76.19 26.58
							 76.73 21.82 77.22 L21.82 71.03 L35.26 71.03 L35.26 65.86 L32.45 65.86 L32.45 57.52 L36.17 57.52 L36.17
							 52.06 L32.45 52.06 L32.45 44.35 L35.26 44.35 L35.26 39.18 L21.82 39.18 L21.82 34.01 C30.27 33.09 33.57
							 30.98 36.6 26.53" class="st3"/>
			</g>
			<g id="shape28-23" v:mID="28" v:groupContext="shape" transform="translate(323.596,-10.3477)">
				<title>path3649</title>
				<path d="M17.47 50.17 C23.64 35.64 23.7 34.37 23.7 31.33 L23.7 25.8 L0 25.8 L0 85.84 L7.22 85.84 L7.22 31.33 L16.08
							 31.33 C15.92 34.49 15.46 36.73 10.85 50.39 C15.82 57.65 16.9 60.83 16.9 65.06 C16.9 69.08 16.11 71.59
							 12.24 71.59 L10.3 71.59 L10.3 78.84 L12.66 78.84 C21.4 78.84 24.26 75.26 24.26 66.35 C24.26 60.78 22.03
							 55.52 17.47 50.17 Z" class="st1"/>
			</g>
		</g>
	</g>
</svg>
